<mxfile host="app.diagrams.net" modified="2021-06-02T01:44:36.088Z" agent="5.0 (X11; Linux x86_64) AppleWebKit/537.36 (KHTML, like Gecko) Chrome/78.0.3904.108 Safari/537.36" etag="Wevoj1GR5Jm5DaYvRSx6" version="14.7.3" type="github" pages="5">
  <diagram id="VW57TrU54CQAMB72KjNL" name="Page-1">
    <mxGraphModel dx="1422" dy="740" grid="0" gridSize="10" guides="1" tooltips="1" connect="1" arrows="1" fold="1" page="1" pageScale="1" pageWidth="1169" pageHeight="827" math="0" shadow="0">
      <root>
        <mxCell id="0" />
        <mxCell id="1" parent="0" />
        <mxCell id="OeO7g4fBH6ANFSEu-TOs-15" value="&lt;font style=&quot;font-size: 18px&quot;&gt;ci-server&lt;/font&gt;" style="shape=cube;whiteSpace=wrap;html=1;boundedLbl=1;backgroundOutline=1;darkOpacity=0.05;darkOpacity2=0.1;size=10;" parent="1" vertex="1">
          <mxGeometry x="550" y="369" width="120" height="80" as="geometry" />
        </mxCell>
        <mxCell id="OeO7g4fBH6ANFSEu-TOs-18" value="" style="endArrow=none;dashed=1;html=1;" parent="1" edge="1">
          <mxGeometry width="50" height="50" relative="1" as="geometry">
            <mxPoint x="510" y="664" as="sourcePoint" />
            <mxPoint x="510" y="154" as="targetPoint" />
          </mxGeometry>
        </mxCell>
        <mxCell id="OeO7g4fBH6ANFSEu-TOs-19" value="&lt;font style=&quot;font-size: 18px&quot;&gt;ci-monitor&lt;/font&gt;" style="rounded=0;whiteSpace=wrap;html=1;" parent="1" vertex="1">
          <mxGeometry x="200" y="259" width="110" height="40" as="geometry" />
        </mxCell>
        <mxCell id="OeO7g4fBH6ANFSEu-TOs-21" value="&lt;font style=&quot;font-size: 18px&quot;&gt;gerrit&lt;/font&gt;" style="rounded=0;whiteSpace=wrap;html=1;" parent="1" vertex="1">
          <mxGeometry x="200" y="359" width="110" height="40" as="geometry" />
        </mxCell>
        <mxCell id="OeO7g4fBH6ANFSEu-TOs-22" value="&lt;font style=&quot;font-size: 18px&quot;&gt;auto-test&lt;/font&gt;" style="rounded=0;whiteSpace=wrap;html=1;" parent="1" vertex="1">
          <mxGeometry x="200" y="439" width="110" height="40" as="geometry" />
        </mxCell>
        <mxCell id="OeO7g4fBH6ANFSEu-TOs-23" value="&lt;font style=&quot;font-size: 18px&quot;&gt;daily-build&lt;/font&gt;" style="rounded=0;whiteSpace=wrap;html=1;" parent="1" vertex="1">
          <mxGeometry x="200" y="529" width="110" height="40" as="geometry" />
        </mxCell>
        <mxCell id="OeO7g4fBH6ANFSEu-TOs-24" value="&lt;font size=&quot;3&quot;&gt;database&lt;/font&gt;" style="shape=cylinder3;whiteSpace=wrap;html=1;boundedLbl=1;backgroundOutline=1;size=15;" parent="1" vertex="1">
          <mxGeometry x="810" y="379" width="80" height="100" as="geometry" />
        </mxCell>
        <mxCell id="OeO7g4fBH6ANFSEu-TOs-25" value="" style="shape=flexArrow;endArrow=classic;startArrow=classic;html=1;exitX=0;exitY=0;exitDx=120;exitDy=45;exitPerimeter=0;entryX=0;entryY=0.5;entryDx=0;entryDy=0;entryPerimeter=0;" parent="1" source="OeO7g4fBH6ANFSEu-TOs-15" target="OeO7g4fBH6ANFSEu-TOs-24" edge="1">
          <mxGeometry width="100" height="100" relative="1" as="geometry">
            <mxPoint x="680" y="479" as="sourcePoint" />
            <mxPoint x="780" y="379" as="targetPoint" />
          </mxGeometry>
        </mxCell>
        <mxCell id="OeO7g4fBH6ANFSEu-TOs-27" value="&lt;font style=&quot;font-size: 14px&quot;&gt;query&lt;/font&gt;" style="text;html=1;align=center;verticalAlign=middle;resizable=0;points=[];autosize=1;strokeColor=none;" parent="1" vertex="1">
          <mxGeometry x="720" y="394" width="50" height="20" as="geometry" />
        </mxCell>
        <mxCell id="OeO7g4fBH6ANFSEu-TOs-28" value="&lt;font style=&quot;font-size: 14px&quot;&gt;write&lt;/font&gt;" style="text;html=1;align=center;verticalAlign=middle;resizable=0;points=[];autosize=1;strokeColor=none;" parent="1" vertex="1">
          <mxGeometry x="720" y="429" width="50" height="20" as="geometry" />
        </mxCell>
        <mxCell id="OeO7g4fBH6ANFSEu-TOs-29" value="&lt;font style=&quot;font-size: 18px&quot;&gt;logs&lt;/font&gt;" style="shape=note;whiteSpace=wrap;html=1;backgroundOutline=1;darkOpacity=0.05;" parent="1" vertex="1">
          <mxGeometry x="810" y="250" width="70" height="86" as="geometry" />
        </mxCell>
        <mxCell id="OeO7g4fBH6ANFSEu-TOs-30" value="" style="shape=flexArrow;endArrow=classic;startArrow=classic;html=1;entryX=0.071;entryY=0.686;entryDx=0;entryDy=0;entryPerimeter=0;" parent="1" source="OeO7g4fBH6ANFSEu-TOs-15" target="OeO7g4fBH6ANFSEu-TOs-29" edge="1">
          <mxGeometry width="100" height="100" relative="1" as="geometry">
            <mxPoint x="670" y="339" as="sourcePoint" />
            <mxPoint x="810" y="340" as="targetPoint" />
          </mxGeometry>
        </mxCell>
        <mxCell id="OeO7g4fBH6ANFSEu-TOs-31" value="&lt;font style=&quot;font-size: 14px&quot;&gt;read&amp;amp;write&lt;/font&gt;" style="text;html=1;align=center;verticalAlign=middle;resizable=0;points=[];autosize=1;strokeColor=none;" parent="1" vertex="1">
          <mxGeometry x="670" y="322" width="80" height="20" as="geometry" />
        </mxCell>
        <mxCell id="OeO7g4fBH6ANFSEu-TOs-32" value="" style="endArrow=classic;startArrow=classic;html=1;exitX=1;exitY=0.5;exitDx=0;exitDy=0;entryX=0;entryY=0;entryDx=0;entryDy=35;entryPerimeter=0;" parent="1" source="OeO7g4fBH6ANFSEu-TOs-19" target="OeO7g4fBH6ANFSEu-TOs-15" edge="1">
          <mxGeometry width="50" height="50" relative="1" as="geometry">
            <mxPoint x="400" y="499" as="sourcePoint" />
            <mxPoint x="450" y="449" as="targetPoint" />
          </mxGeometry>
        </mxCell>
        <mxCell id="OeO7g4fBH6ANFSEu-TOs-33" value="&lt;font style=&quot;font-size: 14px&quot;&gt;request&amp;amp;upload&lt;/font&gt;" style="text;html=1;align=center;verticalAlign=middle;resizable=0;points=[];autosize=1;strokeColor=none;" parent="1" vertex="1">
          <mxGeometry x="370" y="296" width="110" height="20" as="geometry" />
        </mxCell>
        <mxCell id="OeO7g4fBH6ANFSEu-TOs-35" value="&lt;font style=&quot;font-size: 14px&quot;&gt;request&lt;/font&gt;" style="text;html=1;align=center;verticalAlign=middle;resizable=0;points=[];autosize=1;strokeColor=none;" parent="1" vertex="1">
          <mxGeometry x="340" y="359" width="60" height="20" as="geometry" />
        </mxCell>
        <mxCell id="OeO7g4fBH6ANFSEu-TOs-37" value="" style="endArrow=classic;startArrow=classic;html=1;exitX=1;exitY=0.5;exitDx=0;exitDy=0;entryX=0;entryY=0;entryDx=0;entryDy=35;entryPerimeter=0;" parent="1" source="OeO7g4fBH6ANFSEu-TOs-21" target="OeO7g4fBH6ANFSEu-TOs-15" edge="1">
          <mxGeometry width="50" height="50" relative="1" as="geometry">
            <mxPoint x="390" y="459" as="sourcePoint" />
            <mxPoint x="440" y="409" as="targetPoint" />
          </mxGeometry>
        </mxCell>
        <mxCell id="OeO7g4fBH6ANFSEu-TOs-38" value="" style="endArrow=classic;html=1;exitX=1;exitY=0.5;exitDx=0;exitDy=0;entryX=0;entryY=0;entryDx=0;entryDy=35;entryPerimeter=0;" parent="1" source="OeO7g4fBH6ANFSEu-TOs-22" target="OeO7g4fBH6ANFSEu-TOs-15" edge="1">
          <mxGeometry width="50" height="50" relative="1" as="geometry">
            <mxPoint x="400" y="499" as="sourcePoint" />
            <mxPoint x="450" y="449" as="targetPoint" />
          </mxGeometry>
        </mxCell>
        <mxCell id="OeO7g4fBH6ANFSEu-TOs-41" value="" style="endArrow=classic;html=1;exitX=1;exitY=0.5;exitDx=0;exitDy=0;entryX=0;entryY=0;entryDx=0;entryDy=35;entryPerimeter=0;" parent="1" source="OeO7g4fBH6ANFSEu-TOs-23" target="OeO7g4fBH6ANFSEu-TOs-15" edge="1">
          <mxGeometry width="50" height="50" relative="1" as="geometry">
            <mxPoint x="320" y="469" as="sourcePoint" />
            <mxPoint x="560" y="414" as="targetPoint" />
          </mxGeometry>
        </mxCell>
        <mxCell id="OeO7g4fBH6ANFSEu-TOs-42" value="&lt;font style=&quot;font-size: 14px&quot;&gt;upload&lt;/font&gt;" style="text;html=1;align=center;verticalAlign=middle;resizable=0;points=[];autosize=1;strokeColor=none;" parent="1" vertex="1">
          <mxGeometry x="340" y="419" width="60" height="20" as="geometry" />
        </mxCell>
        <mxCell id="OeO7g4fBH6ANFSEu-TOs-43" value="&lt;font style=&quot;font-size: 14px&quot;&gt;upload&lt;/font&gt;" style="text;html=1;align=center;verticalAlign=middle;resizable=0;points=[];autosize=1;strokeColor=none;" parent="1" vertex="1">
          <mxGeometry x="330" y="489" width="60" height="20" as="geometry" />
        </mxCell>
        <mxCell id="OeO7g4fBH6ANFSEu-TOs-44" value="&lt;font style=&quot;font-size: 14px&quot;&gt;Server&lt;/font&gt;" style="text;html=1;align=center;verticalAlign=middle;resizable=0;points=[];autosize=1;strokeColor=none;" parent="1" vertex="1">
          <mxGeometry x="572" y="183" width="60" height="20" as="geometry" />
        </mxCell>
        <mxCell id="OeO7g4fBH6ANFSEu-TOs-45" value="&lt;font style=&quot;font-size: 14px&quot;&gt;Client&lt;/font&gt;" style="text;html=1;align=center;verticalAlign=middle;resizable=0;points=[];autosize=1;strokeColor=none;" parent="1" vertex="1">
          <mxGeometry x="390" y="183" width="50" height="20" as="geometry" />
        </mxCell>
      </root>
    </mxGraphModel>
  </diagram>
  <diagram id="tKPQjT-w4P2Xud8VRJi-" name="Page-2">
    <mxGraphModel dx="1673" dy="918" grid="0" gridSize="10" guides="1" tooltips="1" connect="1" arrows="1" fold="1" page="1" pageScale="1" pageWidth="1169" pageHeight="827" math="0" shadow="0">
      <root>
        <mxCell id="uvQCP8aO8dvvqiBN205Z-0" />
        <mxCell id="uvQCP8aO8dvvqiBN205Z-1" parent="uvQCP8aO8dvvqiBN205Z-0" />
        <mxCell id="lW_CIhka5-E7PY1pRkhY-31" style="edgeStyle=orthogonalEdgeStyle;rounded=0;orthogonalLoop=1;jettySize=auto;html=1;exitX=0.5;exitY=1;exitDx=0;exitDy=0;entryX=0.5;entryY=0;entryDx=0;entryDy=0;" parent="uvQCP8aO8dvvqiBN205Z-1" source="lW_CIhka5-E7PY1pRkhY-0" target="lW_CIhka5-E7PY1pRkhY-1" edge="1">
          <mxGeometry relative="1" as="geometry" />
        </mxCell>
        <mxCell id="lW_CIhka5-E7PY1pRkhY-0" value="&lt;span style=&quot;font-size: 18px&quot;&gt;视频封装数据&lt;/span&gt;" style="rounded=1;whiteSpace=wrap;html=1;" parent="uvQCP8aO8dvvqiBN205Z-1" vertex="1">
          <mxGeometry x="500" y="89" width="145" height="46" as="geometry" />
        </mxCell>
        <mxCell id="lW_CIhka5-E7PY1pRkhY-29" style="edgeStyle=orthogonalEdgeStyle;rounded=0;orthogonalLoop=1;jettySize=auto;html=1;exitX=0;exitY=0.5;exitDx=0;exitDy=0;entryX=0.5;entryY=0;entryDx=0;entryDy=0;" parent="uvQCP8aO8dvvqiBN205Z-1" source="hEMCM59CWUaQIY6JilkR-0" target="lW_CIhka5-E7PY1pRkhY-2" edge="1">
          <mxGeometry relative="1" as="geometry">
            <mxPoint x="496.25" y="247" as="sourcePoint" />
          </mxGeometry>
        </mxCell>
        <mxCell id="lW_CIhka5-E7PY1pRkhY-30" style="edgeStyle=orthogonalEdgeStyle;rounded=0;orthogonalLoop=1;jettySize=auto;html=1;exitX=1;exitY=0.5;exitDx=0;exitDy=0;entryX=0.5;entryY=0;entryDx=0;entryDy=0;" parent="uvQCP8aO8dvvqiBN205Z-1" source="hEMCM59CWUaQIY6JilkR-0" target="lW_CIhka5-E7PY1pRkhY-7" edge="1">
          <mxGeometry relative="1" as="geometry">
            <mxPoint x="658.75" y="247" as="sourcePoint" />
          </mxGeometry>
        </mxCell>
        <mxCell id="hEMCM59CWUaQIY6JilkR-2" style="edgeStyle=orthogonalEdgeStyle;rounded=0;orthogonalLoop=1;jettySize=auto;html=1;exitX=0.5;exitY=1;exitDx=0;exitDy=0;entryX=0.5;entryY=0;entryDx=0;entryDy=0;strokeColor=#000000;" edge="1" parent="uvQCP8aO8dvvqiBN205Z-1" source="lW_CIhka5-E7PY1pRkhY-1" target="hEMCM59CWUaQIY6JilkR-0">
          <mxGeometry relative="1" as="geometry" />
        </mxCell>
        <mxCell id="lW_CIhka5-E7PY1pRkhY-1" value="&lt;span style=&quot;font-size: 18px&quot;&gt;解封装格式&lt;/span&gt;" style="rounded=1;whiteSpace=wrap;html=1;" parent="uvQCP8aO8dvvqiBN205Z-1" vertex="1">
          <mxGeometry x="500" y="149" width="145" height="46" as="geometry" />
        </mxCell>
        <mxCell id="lW_CIhka5-E7PY1pRkhY-2" value="&lt;span style=&quot;font-size: 18px&quot;&gt;音频压缩数据&lt;/span&gt;" style="rounded=1;whiteSpace=wrap;html=1;" parent="uvQCP8aO8dvvqiBN205Z-1" vertex="1">
          <mxGeometry x="385" y="293.5" width="145" height="46" as="geometry" />
        </mxCell>
        <mxCell id="lW_CIhka5-E7PY1pRkhY-3" value="&lt;span style=&quot;font-size: 18px&quot;&gt;音频解码&lt;/span&gt;" style="rounded=1;whiteSpace=wrap;html=1;" parent="uvQCP8aO8dvvqiBN205Z-1" vertex="1">
          <mxGeometry x="385" y="373.5" width="145" height="46" as="geometry" />
        </mxCell>
        <mxCell id="lW_CIhka5-E7PY1pRkhY-27" style="edgeStyle=orthogonalEdgeStyle;rounded=0;orthogonalLoop=1;jettySize=auto;html=1;exitX=0.5;exitY=1;exitDx=0;exitDy=0;entryX=0.5;entryY=0;entryDx=0;entryDy=0;" parent="uvQCP8aO8dvvqiBN205Z-1" source="lW_CIhka5-E7PY1pRkhY-4" target="lW_CIhka5-E7PY1pRkhY-5" edge="1">
          <mxGeometry relative="1" as="geometry">
            <Array as="points">
              <mxPoint x="458" y="527" />
              <mxPoint x="578" y="527" />
            </Array>
          </mxGeometry>
        </mxCell>
        <mxCell id="lW_CIhka5-E7PY1pRkhY-4" value="&lt;span style=&quot;font-size: 18px&quot;&gt;音频采样数据&lt;/span&gt;" style="rounded=1;whiteSpace=wrap;html=1;" parent="uvQCP8aO8dvvqiBN205Z-1" vertex="1">
          <mxGeometry x="385" y="451.5" width="145" height="46" as="geometry" />
        </mxCell>
        <mxCell id="swptUpC2xYpu5d_p3GjP-0" style="edgeStyle=orthogonalEdgeStyle;rounded=0;orthogonalLoop=1;jettySize=auto;html=1;exitX=0.5;exitY=1;exitDx=0;exitDy=0;endArrow=classic;endFill=1;strokeColor=#000000;" edge="1" parent="uvQCP8aO8dvvqiBN205Z-1" source="lW_CIhka5-E7PY1pRkhY-5" target="lW_CIhka5-E7PY1pRkhY-10">
          <mxGeometry relative="1" as="geometry" />
        </mxCell>
        <mxCell id="lW_CIhka5-E7PY1pRkhY-5" value="&lt;span style=&quot;font-size: 18px&quot;&gt;音视频同步&lt;/span&gt;" style="rounded=1;whiteSpace=wrap;html=1;" parent="uvQCP8aO8dvvqiBN205Z-1" vertex="1">
          <mxGeometry x="505" y="545.5" width="145" height="46" as="geometry" />
        </mxCell>
        <mxCell id="lW_CIhka5-E7PY1pRkhY-7" value="&lt;span style=&quot;font-size: 18px&quot;&gt;视频压缩数据&lt;/span&gt;" style="rounded=1;whiteSpace=wrap;html=1;" parent="uvQCP8aO8dvvqiBN205Z-1" vertex="1">
          <mxGeometry x="615" y="293.5" width="145" height="46" as="geometry" />
        </mxCell>
        <mxCell id="lW_CIhka5-E7PY1pRkhY-8" value="&lt;span style=&quot;font-size: 18px&quot;&gt;视频解码&lt;/span&gt;" style="rounded=1;whiteSpace=wrap;html=1;" parent="uvQCP8aO8dvvqiBN205Z-1" vertex="1">
          <mxGeometry x="615" y="373.5" width="145" height="46" as="geometry" />
        </mxCell>
        <mxCell id="lW_CIhka5-E7PY1pRkhY-28" style="edgeStyle=orthogonalEdgeStyle;rounded=0;orthogonalLoop=1;jettySize=auto;html=1;exitX=0.5;exitY=1;exitDx=0;exitDy=0;entryX=0.5;entryY=0;entryDx=0;entryDy=0;" parent="uvQCP8aO8dvvqiBN205Z-1" edge="1">
          <mxGeometry relative="1" as="geometry">
            <mxPoint x="687.5" y="498.5" as="sourcePoint" />
            <mxPoint x="577.5" y="546.5" as="targetPoint" />
            <Array as="points">
              <mxPoint x="688" y="527" />
              <mxPoint x="578" y="527" />
            </Array>
          </mxGeometry>
        </mxCell>
        <mxCell id="lW_CIhka5-E7PY1pRkhY-9" value="&lt;span style=&quot;font-size: 18px&quot;&gt;视频原始数据&lt;/span&gt;" style="rounded=1;whiteSpace=wrap;html=1;" parent="uvQCP8aO8dvvqiBN205Z-1" vertex="1">
          <mxGeometry x="615" y="451.5" width="145" height="46" as="geometry" />
        </mxCell>
        <mxCell id="swptUpC2xYpu5d_p3GjP-4" style="edgeStyle=orthogonalEdgeStyle;rounded=0;orthogonalLoop=1;jettySize=auto;html=1;exitX=0.5;exitY=1;exitDx=0;exitDy=0;entryX=0.5;entryY=0;entryDx=0;entryDy=0;endArrow=classic;endFill=1;strokeColor=#000000;" edge="1" parent="uvQCP8aO8dvvqiBN205Z-1" source="lW_CIhka5-E7PY1pRkhY-10" target="swptUpC2xYpu5d_p3GjP-3">
          <mxGeometry relative="1" as="geometry" />
        </mxCell>
        <mxCell id="lW_CIhka5-E7PY1pRkhY-10" value="&lt;span style=&quot;font-size: 18px&quot;&gt;输出&lt;/span&gt;" style="rounded=1;whiteSpace=wrap;html=1;" parent="uvQCP8aO8dvvqiBN205Z-1" vertex="1">
          <mxGeometry x="505" y="619" width="145" height="46" as="geometry" />
        </mxCell>
        <mxCell id="lW_CIhka5-E7PY1pRkhY-17" value="" style="endArrow=classic;html=1;exitX=0.5;exitY=1;exitDx=0;exitDy=0;entryX=0.5;entryY=0;entryDx=0;entryDy=0;" parent="uvQCP8aO8dvvqiBN205Z-1" source="lW_CIhka5-E7PY1pRkhY-2" target="lW_CIhka5-E7PY1pRkhY-3" edge="1">
          <mxGeometry width="50" height="50" relative="1" as="geometry">
            <mxPoint x="565" y="503.5" as="sourcePoint" />
            <mxPoint x="615" y="453.5" as="targetPoint" />
          </mxGeometry>
        </mxCell>
        <mxCell id="lW_CIhka5-E7PY1pRkhY-23" value="" style="endArrow=classic;html=1;exitX=0.5;exitY=1;exitDx=0;exitDy=0;entryX=0.5;entryY=0;entryDx=0;entryDy=0;" parent="uvQCP8aO8dvvqiBN205Z-1" edge="1">
          <mxGeometry width="50" height="50" relative="1" as="geometry">
            <mxPoint x="457" y="419.5" as="sourcePoint" />
            <mxPoint x="457" y="453.5" as="targetPoint" />
          </mxGeometry>
        </mxCell>
        <mxCell id="lW_CIhka5-E7PY1pRkhY-25" value="" style="endArrow=classic;html=1;exitX=0.5;exitY=1;exitDx=0;exitDy=0;entryX=0.5;entryY=0;entryDx=0;entryDy=0;" parent="uvQCP8aO8dvvqiBN205Z-1" source="lW_CIhka5-E7PY1pRkhY-8" target="lW_CIhka5-E7PY1pRkhY-9" edge="1">
          <mxGeometry width="50" height="50" relative="1" as="geometry">
            <mxPoint x="467" y="429.5" as="sourcePoint" />
            <mxPoint x="467" y="463.5" as="targetPoint" />
          </mxGeometry>
        </mxCell>
        <mxCell id="lW_CIhka5-E7PY1pRkhY-26" value="" style="endArrow=classic;html=1;exitX=0.5;exitY=1;exitDx=0;exitDy=0;entryX=0.5;entryY=0;entryDx=0;entryDy=0;" parent="uvQCP8aO8dvvqiBN205Z-1" source="lW_CIhka5-E7PY1pRkhY-7" target="lW_CIhka5-E7PY1pRkhY-8" edge="1">
          <mxGeometry width="50" height="50" relative="1" as="geometry">
            <mxPoint x="697.5" y="429.5" as="sourcePoint" />
            <mxPoint x="697.5" y="461.5" as="targetPoint" />
          </mxGeometry>
        </mxCell>
        <mxCell id="Patz33cdr9vJEoDu_nJG-2" value="" style="endArrow=classic;html=1;strokeColor=#000000;entryX=0.5;entryY=0;entryDx=0;entryDy=0;" edge="1" parent="uvQCP8aO8dvvqiBN205Z-1" target="lW_CIhka5-E7PY1pRkhY-0">
          <mxGeometry width="50" height="50" relative="1" as="geometry">
            <mxPoint x="572.5" y="72" as="sourcePoint" />
            <mxPoint x="573" y="69" as="targetPoint" />
          </mxGeometry>
        </mxCell>
        <mxCell id="hEMCM59CWUaQIY6JilkR-0" value="&lt;font style=&quot;font-size: 18px&quot;&gt;视频流？&lt;/font&gt;" style="rhombus;whiteSpace=wrap;html=1;strokeColor=#33001A;fillColor=none;gradientColor=#ffffff;" vertex="1" parent="uvQCP8aO8dvvqiBN205Z-1">
          <mxGeometry x="491.25" y="216" width="162.5" height="63" as="geometry" />
        </mxCell>
        <mxCell id="hEMCM59CWUaQIY6JilkR-4" value="&lt;font style=&quot;font-size: 18px&quot;&gt;N&lt;/font&gt;" style="text;html=1;align=center;verticalAlign=middle;resizable=0;points=[];autosize=1;strokeColor=none;" vertex="1" parent="uvQCP8aO8dvvqiBN205Z-1">
          <mxGeometry x="463.25" y="223" width="23" height="20" as="geometry" />
        </mxCell>
        <mxCell id="hEMCM59CWUaQIY6JilkR-5" value="&lt;font style=&quot;font-size: 18px&quot;&gt;Y&lt;/font&gt;" style="text;html=1;align=center;verticalAlign=middle;resizable=0;points=[];autosize=1;strokeColor=none;" vertex="1" parent="uvQCP8aO8dvvqiBN205Z-1">
          <mxGeometry x="657" y="223" width="22" height="20" as="geometry" />
        </mxCell>
        <mxCell id="jjE1PPIUiyS8DJuI9n40-2" value="" style="ellipse;html=1;shape=endState;fillColor=#000000;strokeColor=none;" vertex="1" parent="uvQCP8aO8dvvqiBN205Z-1">
          <mxGeometry x="557.5" y="46" width="30" height="30" as="geometry" />
        </mxCell>
        <mxCell id="swptUpC2xYpu5d_p3GjP-3" value="" style="ellipse;html=1;shape=endState;fillColor=#000000;" vertex="1" parent="uvQCP8aO8dvvqiBN205Z-1">
          <mxGeometry x="562.5" y="693" width="30" height="30" as="geometry" />
        </mxCell>
      </root>
    </mxGraphModel>
  </diagram>
  <diagram id="Cjzj-6672hKViReoOcWP" name="Page-3">
    <mxGraphModel dx="1422" dy="740" grid="0" gridSize="10" guides="1" tooltips="1" connect="1" arrows="1" fold="1" page="1" pageScale="1" pageWidth="1169" pageHeight="827" math="0" shadow="0">
      <root>
        <mxCell id="-Va-ZOzUlysuhVlZw35p-0" />
        <mxCell id="-Va-ZOzUlysuhVlZw35p-1" parent="-Va-ZOzUlysuhVlZw35p-0" />
        <mxCell id="-Va-ZOzUlysuhVlZw35p-15" style="edgeStyle=orthogonalEdgeStyle;rounded=0;orthogonalLoop=1;jettySize=auto;html=1;exitX=0.5;exitY=1;exitDx=0;exitDy=0;entryX=0.5;entryY=0;entryDx=0;entryDy=0;" parent="-Va-ZOzUlysuhVlZw35p-1" source="-Va-ZOzUlysuhVlZw35p-2" target="-Va-ZOzUlysuhVlZw35p-3" edge="1">
          <mxGeometry relative="1" as="geometry" />
        </mxCell>
        <mxCell id="-Va-ZOzUlysuhVlZw35p-2" value="&lt;font size=&quot;3&quot;&gt;start&lt;/font&gt;" style="ellipse;whiteSpace=wrap;html=1;" parent="-Va-ZOzUlysuhVlZw35p-1" vertex="1">
          <mxGeometry x="330" y="90" width="80" height="50" as="geometry" />
        </mxCell>
        <mxCell id="-Va-ZOzUlysuhVlZw35p-13" style="edgeStyle=orthogonalEdgeStyle;rounded=0;orthogonalLoop=1;jettySize=auto;html=1;exitX=0.5;exitY=1;exitDx=0;exitDy=0;entryX=0.5;entryY=0;entryDx=0;entryDy=0;" parent="-Va-ZOzUlysuhVlZw35p-1" source="-Va-ZOzUlysuhVlZw35p-3" target="-Va-ZOzUlysuhVlZw35p-4" edge="1">
          <mxGeometry relative="1" as="geometry" />
        </mxCell>
        <mxCell id="-Va-ZOzUlysuhVlZw35p-17" style="edgeStyle=orthogonalEdgeStyle;rounded=0;orthogonalLoop=1;jettySize=auto;html=1;exitX=1;exitY=0.5;exitDx=0;exitDy=0;entryX=0;entryY=0.5;entryDx=0;entryDy=0;" parent="-Va-ZOzUlysuhVlZw35p-1" source="-Va-ZOzUlysuhVlZw35p-3" target="-Va-ZOzUlysuhVlZw35p-20" edge="1">
          <mxGeometry relative="1" as="geometry">
            <mxPoint x="520" y="192" as="targetPoint" />
          </mxGeometry>
        </mxCell>
        <mxCell id="-Va-ZOzUlysuhVlZw35p-3" value="&lt;font style=&quot;font-size: 14px&quot;&gt;Init AVFilter ?&lt;/font&gt;" style="rhombus;whiteSpace=wrap;html=1;" parent="-Va-ZOzUlysuhVlZw35p-1" vertex="1">
          <mxGeometry x="300" y="162" width="140" height="60" as="geometry" />
        </mxCell>
        <mxCell id="-Va-ZOzUlysuhVlZw35p-6" style="edgeStyle=orthogonalEdgeStyle;rounded=0;orthogonalLoop=1;jettySize=auto;html=1;exitX=0.5;exitY=1;exitDx=0;exitDy=0;" parent="-Va-ZOzUlysuhVlZw35p-1" source="-Va-ZOzUlysuhVlZw35p-4" target="-Va-ZOzUlysuhVlZw35p-5" edge="1">
          <mxGeometry relative="1" as="geometry" />
        </mxCell>
        <mxCell id="-Va-ZOzUlysuhVlZw35p-4" value="&lt;font style=&quot;font-size: 14px&quot;&gt;decode&lt;/font&gt;" style="rounded=1;whiteSpace=wrap;html=1;" parent="-Va-ZOzUlysuhVlZw35p-1" vertex="1">
          <mxGeometry x="320" y="270" width="100" height="40" as="geometry" />
        </mxCell>
        <mxCell id="-Va-ZOzUlysuhVlZw35p-7" style="edgeStyle=orthogonalEdgeStyle;rounded=0;orthogonalLoop=1;jettySize=auto;html=1;exitX=0.5;exitY=1;exitDx=0;exitDy=0;" parent="-Va-ZOzUlysuhVlZw35p-1" source="-Va-ZOzUlysuhVlZw35p-5" edge="1">
          <mxGeometry relative="1" as="geometry">
            <mxPoint x="370" y="420" as="targetPoint" />
          </mxGeometry>
        </mxCell>
        <mxCell id="-Va-ZOzUlysuhVlZw35p-5" value="&lt;font style=&quot;font-size: 14px&quot;&gt;AVFrame&lt;/font&gt;" style="rounded=1;whiteSpace=wrap;html=1;" parent="-Va-ZOzUlysuhVlZw35p-1" vertex="1">
          <mxGeometry x="320" y="350" width="100" height="40" as="geometry" />
        </mxCell>
        <mxCell id="-Va-ZOzUlysuhVlZw35p-9" style="edgeStyle=orthogonalEdgeStyle;rounded=0;orthogonalLoop=1;jettySize=auto;html=1;exitX=0.5;exitY=1;exitDx=0;exitDy=0;" parent="-Va-ZOzUlysuhVlZw35p-1" source="-Va-ZOzUlysuhVlZw35p-8" edge="1">
          <mxGeometry relative="1" as="geometry">
            <mxPoint x="370" y="500" as="targetPoint" />
          </mxGeometry>
        </mxCell>
        <mxCell id="-Va-ZOzUlysuhVlZw35p-8" value="&lt;font&gt;&lt;span style=&quot;font-size: 14px&quot;&gt;av_buffersrc_add_frame_flags&lt;/span&gt;&lt;br&gt;&lt;span style=&quot;font-size: 14px&quot;&gt;(buffersrc_ctx)&lt;/span&gt;&lt;br&gt;&lt;/font&gt;" style="rounded=1;whiteSpace=wrap;html=1;" parent="-Va-ZOzUlysuhVlZw35p-1" vertex="1">
          <mxGeometry x="265" y="420" width="210" height="50" as="geometry" />
        </mxCell>
        <mxCell id="-Va-ZOzUlysuhVlZw35p-10" value="&lt;font&gt;&lt;span style=&quot;font-size: 14px&quot;&gt;av_buffersink_get_frame&lt;/span&gt;&lt;br&gt;&lt;span style=&quot;font-size: 14px&quot;&gt;(buffersink_ctx)&lt;/span&gt;&lt;br&gt;&lt;/font&gt;" style="rounded=1;whiteSpace=wrap;html=1;" parent="-Va-ZOzUlysuhVlZw35p-1" vertex="1">
          <mxGeometry x="265" y="500" width="210" height="50" as="geometry" />
        </mxCell>
        <mxCell id="-Va-ZOzUlysuhVlZw35p-16" style="edgeStyle=orthogonalEdgeStyle;rounded=0;orthogonalLoop=1;jettySize=auto;html=1;exitX=0.5;exitY=1;exitDx=0;exitDy=0;" parent="-Va-ZOzUlysuhVlZw35p-1" source="-Va-ZOzUlysuhVlZw35p-10" target="-Va-ZOzUlysuhVlZw35p-14" edge="1">
          <mxGeometry relative="1" as="geometry">
            <mxPoint x="366" y="246" as="targetPoint" />
            <mxPoint x="370" y="555" as="sourcePoint" />
            <Array as="points">
              <mxPoint x="370" y="650" />
              <mxPoint x="250" y="650" />
              <mxPoint x="250" y="246" />
            </Array>
          </mxGeometry>
        </mxCell>
        <mxCell id="-Va-ZOzUlysuhVlZw35p-14" value="&lt;font style=&quot;font-size: 14px&quot;&gt;yes&lt;/font&gt;" style="text;html=1;align=center;verticalAlign=middle;resizable=0;points=[];autosize=1;strokeColor=none;" parent="-Va-ZOzUlysuhVlZw35p-1" vertex="1">
          <mxGeometry x="370" y="230" width="40" height="20" as="geometry" />
        </mxCell>
        <mxCell id="-Va-ZOzUlysuhVlZw35p-18" value="&lt;font style=&quot;font-size: 14px&quot;&gt;no&lt;/font&gt;" style="text;html=1;align=center;verticalAlign=middle;resizable=0;points=[];autosize=1;strokeColor=none;" parent="-Va-ZOzUlysuhVlZw35p-1" vertex="1">
          <mxGeometry x="500" y="170" width="30" height="20" as="geometry" />
        </mxCell>
        <mxCell id="YsqdapjxlgoeoI0XZ8ft-19" style="edgeStyle=orthogonalEdgeStyle;rounded=0;orthogonalLoop=1;jettySize=auto;html=1;exitX=0.5;exitY=1;exitDx=0;exitDy=0;entryX=0.5;entryY=0;entryDx=0;entryDy=0;" parent="-Va-ZOzUlysuhVlZw35p-1" source="-Va-ZOzUlysuhVlZw35p-19" target="YsqdapjxlgoeoI0XZ8ft-2" edge="1">
          <mxGeometry relative="1" as="geometry">
            <Array as="points">
              <mxPoint x="733" y="310" />
              <mxPoint x="615" y="310" />
            </Array>
          </mxGeometry>
        </mxCell>
        <mxCell id="YsqdapjxlgoeoI0XZ8ft-20" style="edgeStyle=orthogonalEdgeStyle;rounded=0;orthogonalLoop=1;jettySize=auto;html=1;exitX=0.5;exitY=1;exitDx=0;exitDy=0;entryX=0.5;entryY=0;entryDx=0;entryDy=0;" parent="-Va-ZOzUlysuhVlZw35p-1" source="-Va-ZOzUlysuhVlZw35p-19" target="YsqdapjxlgoeoI0XZ8ft-14" edge="1">
          <mxGeometry relative="1" as="geometry">
            <Array as="points">
              <mxPoint x="733" y="310" />
              <mxPoint x="835" y="310" />
            </Array>
          </mxGeometry>
        </mxCell>
        <mxCell id="-Va-ZOzUlysuhVlZw35p-19" value="&lt;font style=&quot;font-size: 14px&quot;&gt;avfilter_graph_alloc&lt;/font&gt;" style="rounded=1;whiteSpace=wrap;html=1;" parent="-Va-ZOzUlysuhVlZw35p-1" vertex="1">
          <mxGeometry x="665" y="250" width="135" height="40" as="geometry" />
        </mxCell>
        <mxCell id="YsqdapjxlgoeoI0XZ8ft-1" style="edgeStyle=orthogonalEdgeStyle;rounded=0;orthogonalLoop=1;jettySize=auto;html=1;exitX=0.5;exitY=1;exitDx=0;exitDy=0;entryX=0.5;entryY=0;entryDx=0;entryDy=0;" parent="-Va-ZOzUlysuhVlZw35p-1" source="-Va-ZOzUlysuhVlZw35p-20" target="-Va-ZOzUlysuhVlZw35p-19" edge="1">
          <mxGeometry relative="1" as="geometry" />
        </mxCell>
        <mxCell id="-Va-ZOzUlysuhVlZw35p-20" value="&lt;span style=&quot;font-size: 14px&quot;&gt;avfilter_init&lt;/span&gt;" style="shape=process;whiteSpace=wrap;html=1;backgroundOutline=1;" parent="-Va-ZOzUlysuhVlZw35p-1" vertex="1">
          <mxGeometry x="677.5" y="167" width="110" height="50" as="geometry" />
        </mxCell>
        <mxCell id="YsqdapjxlgoeoI0XZ8ft-0" style="edgeStyle=orthogonalEdgeStyle;rounded=0;orthogonalLoop=1;jettySize=auto;html=1;exitX=0.5;exitY=1;exitDx=0;exitDy=0;" parent="-Va-ZOzUlysuhVlZw35p-1" source="-Va-ZOzUlysuhVlZw35p-20" target="-Va-ZOzUlysuhVlZw35p-20" edge="1">
          <mxGeometry relative="1" as="geometry" />
        </mxCell>
        <mxCell id="YsqdapjxlgoeoI0XZ8ft-21" style="edgeStyle=orthogonalEdgeStyle;rounded=0;orthogonalLoop=1;jettySize=auto;html=1;exitX=0.5;exitY=1;exitDx=0;exitDy=0;" parent="-Va-ZOzUlysuhVlZw35p-1" source="YsqdapjxlgoeoI0XZ8ft-2" target="YsqdapjxlgoeoI0XZ8ft-15" edge="1">
          <mxGeometry relative="1" as="geometry" />
        </mxCell>
        <mxCell id="YsqdapjxlgoeoI0XZ8ft-2" value="&lt;font style=&quot;font-size: 14px&quot;&gt;AVFilterContext&lt;br&gt;(buffersrc_ctx)&lt;br&gt;&lt;/font&gt;" style="rounded=1;whiteSpace=wrap;html=1;" parent="-Va-ZOzUlysuhVlZw35p-1" vertex="1">
          <mxGeometry x="547.5" y="320" width="135" height="40" as="geometry" />
        </mxCell>
        <mxCell id="YsqdapjxlgoeoI0XZ8ft-23" style="edgeStyle=orthogonalEdgeStyle;rounded=0;orthogonalLoop=1;jettySize=auto;html=1;exitX=0.5;exitY=1;exitDx=0;exitDy=0;entryX=0.5;entryY=0;entryDx=0;entryDy=0;" parent="-Va-ZOzUlysuhVlZw35p-1" source="YsqdapjxlgoeoI0XZ8ft-5" target="YsqdapjxlgoeoI0XZ8ft-6" edge="1">
          <mxGeometry relative="1" as="geometry" />
        </mxCell>
        <mxCell id="YsqdapjxlgoeoI0XZ8ft-5" value="&lt;font style=&quot;font-size: 14px&quot;&gt;AVFilter(buffersrc)&lt;/font&gt;" style="rounded=1;whiteSpace=wrap;html=1;" parent="-Va-ZOzUlysuhVlZw35p-1" vertex="1">
          <mxGeometry x="547.5" y="460" width="135" height="40" as="geometry" />
        </mxCell>
        <mxCell id="YsqdapjxlgoeoI0XZ8ft-27" style="edgeStyle=orthogonalEdgeStyle;rounded=0;orthogonalLoop=1;jettySize=auto;html=1;exitX=0.5;exitY=1;exitDx=0;exitDy=0;entryX=0.5;entryY=0;entryDx=0;entryDy=0;" parent="-Va-ZOzUlysuhVlZw35p-1" source="YsqdapjxlgoeoI0XZ8ft-6" target="YsqdapjxlgoeoI0XZ8ft-7" edge="1">
          <mxGeometry relative="1" as="geometry">
            <Array as="points">
              <mxPoint x="615" y="580" />
              <mxPoint x="733" y="580" />
            </Array>
          </mxGeometry>
        </mxCell>
        <mxCell id="YsqdapjxlgoeoI0XZ8ft-6" value="&lt;font style=&quot;font-size: 14px&quot;&gt;AVFilterInOut(inputs)&lt;/font&gt;" style="rounded=1;whiteSpace=wrap;html=1;" parent="-Va-ZOzUlysuhVlZw35p-1" vertex="1">
          <mxGeometry x="547.5" y="530" width="135" height="40" as="geometry" />
        </mxCell>
        <mxCell id="YsqdapjxlgoeoI0XZ8ft-29" style="edgeStyle=orthogonalEdgeStyle;rounded=0;orthogonalLoop=1;jettySize=auto;html=1;exitX=0.5;exitY=1;exitDx=0;exitDy=0;entryX=0.5;entryY=0;entryDx=0;entryDy=0;" parent="-Va-ZOzUlysuhVlZw35p-1" source="YsqdapjxlgoeoI0XZ8ft-7" target="YsqdapjxlgoeoI0XZ8ft-18" edge="1">
          <mxGeometry relative="1" as="geometry" />
        </mxCell>
        <mxCell id="YsqdapjxlgoeoI0XZ8ft-7" value="&lt;font style=&quot;font-size: 14px&quot;&gt;avfilter_graph_parse_ptr&lt;/font&gt;" style="rounded=1;whiteSpace=wrap;html=1;" parent="-Va-ZOzUlysuhVlZw35p-1" vertex="1">
          <mxGeometry x="645" y="600" width="175" height="40" as="geometry" />
        </mxCell>
        <mxCell id="YsqdapjxlgoeoI0XZ8ft-25" style="edgeStyle=orthogonalEdgeStyle;rounded=0;orthogonalLoop=1;jettySize=auto;html=1;exitX=0.5;exitY=1;exitDx=0;exitDy=0;entryX=0.5;entryY=0;entryDx=0;entryDy=0;" parent="-Va-ZOzUlysuhVlZw35p-1" source="YsqdapjxlgoeoI0XZ8ft-11" target="YsqdapjxlgoeoI0XZ8ft-16" edge="1">
          <mxGeometry relative="1" as="geometry" />
        </mxCell>
        <mxCell id="YsqdapjxlgoeoI0XZ8ft-11" value="&lt;font style=&quot;font-size: 14px&quot;&gt;avfilter_graph_create_filter()&lt;/font&gt;" style="rounded=1;whiteSpace=wrap;html=1;" parent="-Va-ZOzUlysuhVlZw35p-1" vertex="1">
          <mxGeometry x="735" y="390" width="200" height="40" as="geometry" />
        </mxCell>
        <mxCell id="YsqdapjxlgoeoI0XZ8ft-24" style="edgeStyle=orthogonalEdgeStyle;rounded=0;orthogonalLoop=1;jettySize=auto;html=1;exitX=0.5;exitY=1;exitDx=0;exitDy=0;entryX=0.5;entryY=0;entryDx=0;entryDy=0;" parent="-Va-ZOzUlysuhVlZw35p-1" source="YsqdapjxlgoeoI0XZ8ft-14" target="YsqdapjxlgoeoI0XZ8ft-11" edge="1">
          <mxGeometry relative="1" as="geometry" />
        </mxCell>
        <mxCell id="YsqdapjxlgoeoI0XZ8ft-14" value="&lt;font style=&quot;font-size: 14px&quot;&gt;AVFilterContext&lt;br&gt;(buffersink_ctx)&lt;br&gt;&lt;/font&gt;" style="rounded=1;whiteSpace=wrap;html=1;" parent="-Va-ZOzUlysuhVlZw35p-1" vertex="1">
          <mxGeometry x="767.5" y="320" width="135" height="40" as="geometry" />
        </mxCell>
        <mxCell id="YsqdapjxlgoeoI0XZ8ft-22" style="edgeStyle=orthogonalEdgeStyle;rounded=0;orthogonalLoop=1;jettySize=auto;html=1;exitX=0.5;exitY=1;exitDx=0;exitDy=0;entryX=0.5;entryY=0;entryDx=0;entryDy=0;" parent="-Va-ZOzUlysuhVlZw35p-1" source="YsqdapjxlgoeoI0XZ8ft-15" target="YsqdapjxlgoeoI0XZ8ft-5" edge="1">
          <mxGeometry relative="1" as="geometry" />
        </mxCell>
        <mxCell id="YsqdapjxlgoeoI0XZ8ft-15" value="&lt;font style=&quot;font-size: 14px&quot;&gt;avfilter_graph_create_filter()&lt;/font&gt;" style="rounded=1;whiteSpace=wrap;html=1;" parent="-Va-ZOzUlysuhVlZw35p-1" vertex="1">
          <mxGeometry x="515" y="390" width="200" height="40" as="geometry" />
        </mxCell>
        <mxCell id="YsqdapjxlgoeoI0XZ8ft-26" style="edgeStyle=orthogonalEdgeStyle;rounded=0;orthogonalLoop=1;jettySize=auto;html=1;exitX=0.5;exitY=1;exitDx=0;exitDy=0;" parent="-Va-ZOzUlysuhVlZw35p-1" source="YsqdapjxlgoeoI0XZ8ft-16" target="YsqdapjxlgoeoI0XZ8ft-17" edge="1">
          <mxGeometry relative="1" as="geometry" />
        </mxCell>
        <mxCell id="YsqdapjxlgoeoI0XZ8ft-16" value="&lt;font style=&quot;font-size: 14px&quot;&gt;AVFilter(buffersink)&lt;/font&gt;" style="rounded=1;whiteSpace=wrap;html=1;" parent="-Va-ZOzUlysuhVlZw35p-1" vertex="1">
          <mxGeometry x="767.5" y="460" width="135" height="40" as="geometry" />
        </mxCell>
        <mxCell id="YsqdapjxlgoeoI0XZ8ft-28" style="edgeStyle=orthogonalEdgeStyle;rounded=0;orthogonalLoop=1;jettySize=auto;html=1;exitX=0.5;exitY=1;exitDx=0;exitDy=0;entryX=0.5;entryY=0;entryDx=0;entryDy=0;" parent="-Va-ZOzUlysuhVlZw35p-1" source="YsqdapjxlgoeoI0XZ8ft-17" target="YsqdapjxlgoeoI0XZ8ft-7" edge="1">
          <mxGeometry relative="1" as="geometry">
            <Array as="points">
              <mxPoint x="835" y="580" />
              <mxPoint x="733" y="580" />
            </Array>
          </mxGeometry>
        </mxCell>
        <mxCell id="YsqdapjxlgoeoI0XZ8ft-17" value="&lt;font style=&quot;font-size: 14px&quot;&gt;AVFilterInOut(outputs)&lt;/font&gt;" style="rounded=1;whiteSpace=wrap;html=1;" parent="-Va-ZOzUlysuhVlZw35p-1" vertex="1">
          <mxGeometry x="761.25" y="530" width="147.5" height="40" as="geometry" />
        </mxCell>
        <mxCell id="YsqdapjxlgoeoI0XZ8ft-18" value="&lt;font style=&quot;font-size: 14px&quot;&gt;avfilter_graph_config&lt;/font&gt;" style="rounded=1;whiteSpace=wrap;html=1;" parent="-Va-ZOzUlysuhVlZw35p-1" vertex="1">
          <mxGeometry x="645" y="670" width="175" height="40" as="geometry" />
        </mxCell>
      </root>
    </mxGraphModel>
  </diagram>
  <diagram id="y099-3o8NSWoRnCZw0Qo" name="Page-4">
    <mxGraphModel dx="1422" dy="740" grid="0" gridSize="10" guides="1" tooltips="1" connect="1" arrows="1" fold="1" page="1" pageScale="1" pageWidth="1169" pageHeight="827" math="0" shadow="0">
      <root>
        <mxCell id="8flf7lf9Of9WMET9icdg-0" />
        <mxCell id="8flf7lf9Of9WMET9icdg-1" parent="8flf7lf9Of9WMET9icdg-0" />
        <mxCell id="683VG2BJkEUEiGZ4HVJy-15" value="" style="rounded=0;whiteSpace=wrap;html=1;dashed=1;strokeColor=#33001A;strokeWidth=1;fillColor=none;gradientColor=#ffffff;" vertex="1" parent="8flf7lf9Of9WMET9icdg-1">
          <mxGeometry x="170" y="332" width="410" height="190" as="geometry" />
        </mxCell>
        <mxCell id="683VG2BJkEUEiGZ4HVJy-14" value="" style="rounded=0;whiteSpace=wrap;html=1;strokeColor=#33001A;strokeWidth=1;fillColor=none;gradientColor=#ffffff;dashed=1;" vertex="1" parent="8flf7lf9Of9WMET9icdg-1">
          <mxGeometry x="620" y="222" width="290" height="310" as="geometry" />
        </mxCell>
        <mxCell id="8flf7lf9Of9WMET9icdg-8" value="&lt;font size=&quot;3&quot;&gt;database&lt;/font&gt;" style="shape=cylinder3;whiteSpace=wrap;html=1;boundedLbl=1;backgroundOutline=1;size=15;" vertex="1" parent="8flf7lf9Of9WMET9icdg-1">
          <mxGeometry x="780" y="409" width="70" height="82" as="geometry" />
        </mxCell>
        <mxCell id="8flf7lf9Of9WMET9icdg-12" value="&lt;font style=&quot;font-size: 18px&quot;&gt;logs&lt;/font&gt;" style="shape=note;whiteSpace=wrap;html=1;backgroundOutline=1;darkOpacity=0.05;" vertex="1" parent="8flf7lf9Of9WMET9icdg-1">
          <mxGeometry x="780" y="279.96" width="60" height="74.04" as="geometry" />
        </mxCell>
        <mxCell id="AL8gmhVcNDZZs9hDGYmi-0" value="&lt;font style=&quot;font-size: 16px&quot;&gt;Internet&lt;/font&gt;" style="ellipse;shape=cloud;whiteSpace=wrap;html=1;strokeColor=#33001A;fillColor=none;gradientColor=#ffffff;" vertex="1" parent="8flf7lf9Of9WMET9icdg-1">
          <mxGeometry x="456.1" y="130" width="120" height="80" as="geometry" />
        </mxCell>
        <mxCell id="JF-zVfsVEAbkcdilMsLd-0" value="" style="points=[];aspect=fixed;html=1;align=center;shadow=0;dashed=0;image;image=img/lib/allied_telesis/computer_and_terminals/Personal_Computer.svg;strokeColor=#33001A;fillColor=none;gradientColor=#ffffff;" vertex="1" parent="8flf7lf9Of9WMET9icdg-1">
          <mxGeometry x="190" y="392" width="45.6" height="61.800000000000004" as="geometry" />
        </mxCell>
        <mxCell id="oP2LLYPMgtBH9DAgxOIS-5" style="edgeStyle=orthogonalEdgeStyle;rounded=0;orthogonalLoop=1;jettySize=auto;html=1;exitX=0;exitY=0.5;exitDx=0;exitDy=0;exitPerimeter=0;entryX=0.55;entryY=0.95;entryDx=0;entryDy=0;entryPerimeter=0;endArrow=none;endFill=0;strokeColor=#000000;" edge="1" parent="8flf7lf9Of9WMET9icdg-1" source="oP2LLYPMgtBH9DAgxOIS-3" target="AL8gmhVcNDZZs9hDGYmi-0">
          <mxGeometry relative="1" as="geometry" />
        </mxCell>
        <mxCell id="oP2LLYPMgtBH9DAgxOIS-3" value="" style="strokeWidth=1;html=1;shape=mxgraph.flowchart.annotation_1;align=left;pointerEvents=1;fillColor=none;gradientColor=#ffffff;rotation=90;" vertex="1" parent="8flf7lf9Of9WMET9icdg-1">
          <mxGeometry x="467.98" y="154.93" width="108.09" height="316.06" as="geometry" />
        </mxCell>
        <mxCell id="oP2LLYPMgtBH9DAgxOIS-6" value="" style="points=[];aspect=fixed;html=1;align=center;shadow=0;dashed=0;image;image=img/lib/allied_telesis/computer_and_terminals/Server_Desktop.svg;strokeColor=#33001A;strokeWidth=1;fillColor=none;gradientColor=#ffffff;" vertex="1" parent="8flf7lf9Of9WMET9icdg-1">
          <mxGeometry x="660" y="364" width="42.599999999999994" height="54" as="geometry" />
        </mxCell>
        <mxCell id="oP2LLYPMgtBH9DAgxOIS-7" value="&lt;font style=&quot;font-size: 16px&quot;&gt;ci-server&lt;/font&gt;" style="text;html=1;align=center;verticalAlign=middle;resizable=0;points=[];autosize=1;strokeColor=none;" vertex="1" parent="8flf7lf9Of9WMET9icdg-1">
          <mxGeometry x="640" y="418" width="80" height="20" as="geometry" />
        </mxCell>
        <mxCell id="oP2LLYPMgtBH9DAgxOIS-11" style="edgeStyle=orthogonalEdgeStyle;rounded=0;orthogonalLoop=1;jettySize=auto;html=1;exitX=0;exitY=0.5;exitDx=0;exitDy=0;exitPerimeter=0;endArrow=none;endFill=0;strokeColor=#000000;" edge="1" parent="8flf7lf9Of9WMET9icdg-1" source="oP2LLYPMgtBH9DAgxOIS-10" target="oP2LLYPMgtBH9DAgxOIS-6">
          <mxGeometry relative="1" as="geometry" />
        </mxCell>
        <mxCell id="oP2LLYPMgtBH9DAgxOIS-10" value="" style="strokeWidth=1;html=1;shape=mxgraph.flowchart.annotation_1;align=left;pointerEvents=1;fillColor=none;gradientColor=#ffffff;rotation=0;" vertex="1" parent="8flf7lf9Of9WMET9icdg-1">
          <mxGeometry x="740" y="318" width="40" height="145.96" as="geometry" />
        </mxCell>
        <mxCell id="683VG2BJkEUEiGZ4HVJy-8" style="edgeStyle=orthogonalEdgeStyle;rounded=0;orthogonalLoop=1;jettySize=auto;html=1;exitX=1;exitY=0;exitDx=0;exitDy=0;exitPerimeter=0;entryX=0;entryY=0;entryDx=31;entryDy=0;entryPerimeter=0;endArrow=none;endFill=0;strokeColor=#000000;" edge="1" parent="8flf7lf9Of9WMET9icdg-1" source="oP2LLYPMgtBH9DAgxOIS-12" target="683VG2BJkEUEiGZ4HVJy-7">
          <mxGeometry relative="1" as="geometry" />
        </mxCell>
        <mxCell id="683VG2BJkEUEiGZ4HVJy-10" style="edgeStyle=orthogonalEdgeStyle;rounded=0;orthogonalLoop=1;jettySize=auto;html=1;exitX=1;exitY=0.5;exitDx=0;exitDy=0;exitPerimeter=0;entryX=0;entryY=0;entryDx=31;entryDy=0;entryPerimeter=0;endArrow=none;endFill=0;strokeColor=#000000;" edge="1" parent="8flf7lf9Of9WMET9icdg-1" source="oP2LLYPMgtBH9DAgxOIS-12" target="683VG2BJkEUEiGZ4HVJy-6">
          <mxGeometry relative="1" as="geometry" />
        </mxCell>
        <mxCell id="683VG2BJkEUEiGZ4HVJy-13" style="edgeStyle=orthogonalEdgeStyle;rounded=0;orthogonalLoop=1;jettySize=auto;html=1;exitX=1;exitY=1;exitDx=0;exitDy=0;exitPerimeter=0;entryX=0.65;entryY=0;entryDx=0;entryDy=0;entryPerimeter=0;endArrow=none;endFill=0;strokeColor=#000000;" edge="1" parent="8flf7lf9Of9WMET9icdg-1" source="oP2LLYPMgtBH9DAgxOIS-12" target="683VG2BJkEUEiGZ4HVJy-3">
          <mxGeometry relative="1" as="geometry" />
        </mxCell>
        <mxCell id="oP2LLYPMgtBH9DAgxOIS-12" value="" style="strokeWidth=1;html=1;shape=mxgraph.flowchart.annotation_1;align=left;pointerEvents=1;fillColor=none;gradientColor=#ffffff;rotation=90;" vertex="1" parent="8flf7lf9Of9WMET9icdg-1">
          <mxGeometry x="377.52" y="248.64" width="35.6" height="273.08" as="geometry" />
        </mxCell>
        <mxCell id="oP2LLYPMgtBH9DAgxOIS-13" value="&lt;font style=&quot;font-size: 16px&quot;&gt;ci-monitor&lt;/font&gt;" style="text;html=1;align=center;verticalAlign=middle;resizable=0;points=[];autosize=1;strokeColor=none;" vertex="1" parent="8flf7lf9Of9WMET9icdg-1">
          <mxGeometry x="200.88" y="463.96000000000004" width="90" height="20" as="geometry" />
        </mxCell>
        <mxCell id="683VG2BJkEUEiGZ4HVJy-1" value="" style="points=[];aspect=fixed;html=1;align=center;shadow=0;dashed=0;image;image=img/lib/allied_telesis/computer_and_terminals/Personal_Computer.svg;strokeColor=#33001A;fillColor=none;gradientColor=#ffffff;" vertex="1" parent="8flf7lf9Of9WMET9icdg-1">
          <mxGeometry x="270" y="402.16" width="45.6" height="61.800000000000004" as="geometry" />
        </mxCell>
        <mxCell id="683VG2BJkEUEiGZ4HVJy-3" value="……" style="text;html=1;align=center;verticalAlign=middle;resizable=0;points=[];autosize=1;strokeColor=none;" vertex="1" parent="8flf7lf9Of9WMET9icdg-1">
          <mxGeometry x="233" y="422" width="40" height="20" as="geometry" />
        </mxCell>
        <mxCell id="683VG2BJkEUEiGZ4HVJy-6" value="&lt;font style=&quot;font-size: 16px&quot;&gt;AT&lt;/font&gt;" style="shape=cube;whiteSpace=wrap;html=1;boundedLbl=1;backgroundOutline=1;darkOpacity=0.05;darkOpacity2=0.1;strokeColor=#33001A;strokeWidth=1;fillColor=none;gradientColor=#ffffff;size=10;" vertex="1" parent="8flf7lf9Of9WMET9icdg-1">
          <mxGeometry x="364.32" y="422" width="72" height="40" as="geometry" />
        </mxCell>
        <mxCell id="683VG2BJkEUEiGZ4HVJy-7" value="&lt;font style=&quot;font-size: 16px&quot;&gt;UT&lt;/font&gt;" style="shape=cube;whiteSpace=wrap;html=1;boundedLbl=1;backgroundOutline=1;darkOpacity=0.05;darkOpacity2=0.1;strokeColor=#33001A;strokeWidth=1;fillColor=none;gradientColor=#ffffff;size=10;" vertex="1" parent="8flf7lf9Of9WMET9icdg-1">
          <mxGeometry x="500" y="423.96" width="72" height="40" as="geometry" />
        </mxCell>
        <mxCell id="683VG2BJkEUEiGZ4HVJy-9" style="edgeStyle=orthogonalEdgeStyle;rounded=0;orthogonalLoop=1;jettySize=auto;html=1;exitX=0;exitY=0.5;exitDx=0;exitDy=0;exitPerimeter=0;entryX=1;entryY=0.5;entryDx=0;entryDy=0;entryPerimeter=0;endArrow=none;endFill=0;strokeColor=#000000;" edge="1" parent="8flf7lf9Of9WMET9icdg-1" source="oP2LLYPMgtBH9DAgxOIS-12" target="oP2LLYPMgtBH9DAgxOIS-12">
          <mxGeometry relative="1" as="geometry" />
        </mxCell>
      </root>
    </mxGraphModel>
  </diagram>
  <diagram id="BlECy-CUUJktWxr3AW0T" name="第 5 页">
    <mxGraphModel dx="1422" dy="740" grid="1" gridSize="10" guides="1" tooltips="1" connect="1" arrows="1" fold="1" page="1" pageScale="1" pageWidth="1169" pageHeight="827" math="0" shadow="0">
      <root>
        <mxCell id="QllURk9EG5ROfGdDpHgU-0" />
        <mxCell id="QllURk9EG5ROfGdDpHgU-1" parent="QllURk9EG5ROfGdDpHgU-0" />
      </root>
    </mxGraphModel>
  </diagram>
</mxfile>
